PathFileType	4	(X/Y/Z)	C:\Users\Basilio\Documents\Thesis Gigler\squatting_fais\c3dfiles\019\SJ_pre3\markers_experimental.trc
DataRate	CameraRate	NumFrames	NumMarkers	Units	OrigDataRate	OrigDataStartFrame	OrigNumFrames
200.000000	200.000000	4	59	mm	200.000000	162	1302
Frame#	Time	FHD			RBHD			C7			T10			CLAV			LSHO			LUUPA			LMUPA			LDUPA			LLEP			LMEP			LRAD			LUL			LRFIN			RSHO			RUPA1			RMUPA			RDUPA			RLEP			RMEP			RRAD			RUL			RUFIN			LASI			RASI			USACR			LSACR			RSACR			LTHI1			LTHI2			LTHI3			LTHI4			LLFC			LTIB1			LTIB2			LTIB3			LTIB4			LLMAL			LMMAL			LHEE			LMT1			LMT2			LMT5			RTHI			RTHI2			RTHI3			RTHI4			RLFC			RTIB1			RTIB2			RTIB3			RTIB4			RLMAL			RMMAL			RHEE			RMT1			RMT2			RMT5			LBHD			
		X1	Y1	Z1	X2	Y2	Z2	X3	Y3	Z3	X4	Y4	Z4	X5	Y5	Z5	X6	Y6	Z6	X7	Y7	Z7	X8	Y8	Z8	X9	Y9	Z9	X10	Y10	Z10	X11	Y11	Z11	X12	Y12	Z12	X13	Y13	Z13	X14	Y14	Z14	X15	Y15	Z15	X16	Y16	Z16	X17	Y17	Z17	X18	Y18	Z18	X19	Y19	Z19	X20	Y20	Z20	X21	Y21	Z21	X22	Y22	Z22	X23	Y23	Z23	X24	Y24	Z24	X25	Y25	Z25	X26	Y26	Z26	X27	Y27	Z27	X28	Y28	Z28	X29	Y29	Z29	X30	Y30	Z30	X31	Y31	Z31	X32	Y32	Z32	X33	Y33	Z33	X34	Y34	Z34	X35	Y35	Z35	X36	Y36	Z36	X37	Y37	Z37	X38	Y38	Z38	X39	Y39	Z39	X40	Y40	Z40	X41	Y41	Z41	X42	Y42	Z42	X43	Y43	Z43	X44	Y44	Z44	X45	Y45	Z45	X46	Y46	Z46	X47	Y47	Z47	X48	Y48	Z48	X49	Y49	Z49	X50	Y50	Z50	X51	Y51	Z51	X52	Y52	Z52	X53	Y53	Z53	X54	Y54	Z54	X55	Y55	Z55	X56	Y56	Z56	X57	Y57	Z57	X58	Y58	Z58	X59	Y59	Z59	

163	0.8100000000000001	-173.0472717285157	1411.1279296875	-1021.494750976563	-171.4355773925782	1407.788696289063	-881.9077758789065	-231.3299255371094	1265.366821289063	-944.213073730469	-397.1927490234376	1034.538208007813	-943.1813964843752	-123.3322982788086	1167.4873046875	-951.6436157226565	-171.5191192626953	1224.77099609375	-1103.921752929688	-248.6938476562501	1111.097900390625	-1213.487548828125	-264.7774963378907	1069.135498046875	-1193.330932617188	-288.4841003417969	1069.615112304688	-1248.1162109375	-347.6889953613282	1047.40478515625	-1305.606811523438	-411.6628723144532	1071.833740234375	-1283.506225585938	-442.2220458984376	843.5432739257815	-1179.467163085938	-425.6593322753907	816.2198486328127	-1239.039184570313	-407.237518310547	812.1267089843752	-1145.948120117188	-154.4503936767578	1221.345825195313	-805.9416503906252	-264.9502258300782	1149.772705078125	-661.1396484375001	-255.1116333007813	1100.001831054688	-660.1364135742189	-298.2281494140626	1106.334838867188	-617.6260375976564	-336.1787719726563	1040.558349609375	-583.6333007812501	-392.1786499023439	1070.466918945313	-601.8890991210939	-429.6226196289064	843.3843383789065	-722.1400756835939	-408.5348510742189	807.8286132812502	-673.5235595703126	-394.3012084960939	805.6819458007815	-763.8713989257814	-396.0452575683595	802.6864013671877	-1054.230712890625	-382.5109863281251	796.1741333007815	-856.019714355469	-483.6384582519532	933.6705322265627	-946.4465942382815	-509.8129272460939	911.131530761719	-972.8042602539065	-505.1671752929689	908.4195556640627	-916.381774902344	-416.6513671875001	628.1464843750001	-1184.440795898438	-341.5363159179688	597.4120483398439	-1210.43017578125	-305.5175170898438	627.4670410156251	-1202.447021484375	-324.0863647460938	537.3947753906251	-1213.116333007813	-268.5745544433594	465.4395446777345	-1214.081665039063	-222.5968780517579	325.0373229980469	-1203.947265625	-299.0256042480469	297.4573974609376	-1237.69921875	-260.2116394042969	285.6890563964844	-1225.1552734375	-268.7559814453126	207.4924774169922	-1189.60205078125	-374.7101440429688	96.71037292480472	-1199.297607421875	-332.8994140625001	96.92354583740237	-1122.63671875	-420.1116333007814	45.83114242553712	-1137.580810546875	-210.5880126953126	67.20416259765626	-1188.655151367188	-222.1766662597657	67.67903900146486	-1226.207397460938	-274.6264953613282	37.93424987792969	-1263.5869140625	-425.6357727050782	688.9422607421876	-731.0997314453126	-361.2666931152344	676.1087646484376	-720.6401977539064	-340.5235595703126	694.8693847656251	-738.9010009765626	-328.5209655761719	604.2352905273439	-696.3920898437501	-251.7435150146485	463.8152770996095	-691.8602905273439	-222.2872161865235	284.4353637695313	-720.2352905273439	-304.9928588867188	223.2179565429688	-677.9036254882814	-263.2015686035157	212.0641479492188	-697.6717529296876	-273.5948486328126	169.3463745117188	-740.5878906250001	-359.9174804687501	99.49053955078128	-704.3997802734376	-319.6894531250001	94.76135253906251	-775.0935668945315	-401.2281799316407	43.29261016845704	-765.7641601562501	-200.5298156738282	59.59759521484376	-709.5944824218751	-213.7216949462891	67.02236938476564	-666.3451538085939	-268.5003051757813	44.0499496459961	-630.8008422851564	nan	nan	nan	
164	0.8150000000000001	-170.1411285400391	1404.067138671875	-1021.234985351563	-168.9304962158203	1400.539428710938	-882.015808105469	-229.5988311767579	1259.751831054688	-944.366149902344	-397.4888305664064	1030.609252929688	-943.195495605469	-122.4899368286133	1161.035522460938	-951.6367797851565	-169.5970458984375	1218.698974609375	-1103.865112304688	-248.1089477539063	1106.119995117188	-1213.551391601563	-264.5133972167969	1064.30908203125	-1193.477661132813	-288.3581542968751	1065.259887695313	-1248.347412109375	-347.8045349121094	1043.76806640625	-1305.731689453125	-411.5331420898439	1068.8759765625	-1283.536865234375	-444.2997436523439	840.8178710937502	-1179.629272460938	-428.0649719238282	813.2854614257815	-1239.18505859375	-408.9183044433595	809.454284667969	-1145.873413085938	-152.8929290771485	1215.179565429688	-805.8717041015627	-264.5133361816407	1145.288330078125	-661.1595458984376	-254.7264099121094	1094.833618164063	-659.5407714843751	-298.0050964355469	1102.362915039063	-617.3991699218751	-336.7205810546876	1036.770385742188	-582.9739990234376	-392.5171813964845	1067.258544921875	-601.7268066406251	-431.5576782226564	840.3896484375002	-721.5405883789064	-410.8740539550782	804.7232055664065	-672.8425292968751	-396.365936279297	802.8970947265627	-763.2786254882814	-397.5560913085939	799.0009765625002	-1054.269287109375	-384.1791381835939	792.7363281250002	-855.9990844726565	-484.7976989746095	930.0954589843752	-946.6583251953127	-511.0367431640626	907.7322387695315	-972.8452758789065	-506.4875488281251	904.9981689453127	-916.5456542968752	-417.6267089843751	625.9866943359376	-1184.988647460938	-342.0162353515626	595.9019775390626	-1210.955688476563	-306.3359985351563	626.2655029296876	-1202.933715820313	-324.1434936523438	536.2786254882814	-1213.677734375	-267.9732055664063	464.7774353027345	-1215.119140625	-222.0026855468751	324.7107238769532	-1204.699584960938	-298.6230468750001	297.0786743164063	-1238.384643554688	-259.6869506835938	285.3139648437501	-1225.76318359375	-268.7721862792969	207.0746307373047	-1190.106811523438	-374.6018066406251	96.85562896728518	-1199.412231445313	-332.7769775390626	96.98184967041018	-1122.711303710938	-420.0989990234376	45.94146347045899	-1137.5625	-210.555648803711	66.94735717773439	-1188.937255859375	-222.2104949951172	67.48870849609376	-1226.420043945313	-274.8163146972657	37.79354476928712	-1263.6943359375	-427.1949768066407	686.5235595703126	-731.0949096679689	-362.8826904296876	674.5823364257814	-720.8648681640626	-341.6857910156251	693.0028076171876	-738.6364746093751	-329.2180786132813	602.7776489257814	-696.1958007812501	-251.0176696777344	463.0293884277345	-691.3579711914064	-221.2998046875001	283.7510986328126	-719.7620849609376	-304.5144348144532	222.9624481201172	-677.6569824218751	-262.5258789062501	211.7009887695313	-697.4631347656251	-273.2328186035157	169.18994140625	-740.3875122070314	-359.7360839843751	99.44690704345706	-704.3690185546876	-319.4998168945313	94.75454711914064	-775.109069824219	-401.256805419922	43.45416641235352	-765.7552490234376	-200.4143066406251	59.48422622680665	-709.4188232421876	-213.7528228759766	66.88480377197267	-666.2554321289064	-268.6284179687501	44.02914047241212	-630.7288208007814	nan	nan	nan	
165	0.8200000000000001	-168.6084747314453	1397.241455078125	-1021.455932617188	-166.4225616455078	1393.725830078125	-882.0178833007815	-227.4566192626954	1254.305541992188	-944.2625732421877	-397.5285644531251	1026.613403320313	-943.3579711914065	-121.1335830688477	1154.351928710938	-951.3911743164065	-167.7670593261719	1212.697387695313	-1103.731567382813	-247.3240051269532	1100.985717773438	-1213.485717773438	-264.1662902832032	1059.454833984375	-1193.509765625	-288.2060546875001	1060.939575195313	-1248.549438476563	-347.9309082031251	1040.115600585938	-1305.795776367188	-411.2804565429689	1065.855590820313	-1283.53857421875	-445.6636962890626	837.745300292969	-1179.776733398438	-430.3935852050782	810.3259277343752	-1239.190673828125	-411.1937255859376	806.7817382812502	-1146.104736328125	-151.4553833007813	1209.029418945313	-805.887878417969	-263.9089660644532	1140.632568359375	-661.1677856445314	-254.4293365478516	1089.862915039063	-658.9949951171876	-297.8426208496094	1098.30859375	-617.1181640625001	-337.1748046875001	1033.297973632813	-582.6116943359376	-392.9453735351564	1063.89697265625	-601.5256347656251	-433.7539367675782	837.5114746093752	-721.1213989257814	-413.0638732910157	801.7324218750002	-672.4167480468751	-399.0672607421876	799.8317871093752	-763.1405639648439	-399.1469726562501	795.346374511719	-1054.45654296875	-385.4915161132814	789.0323486328127	-855.9554443359377	-485.9551391601564	926.585632324219	-946.7650146484377	-512.3768920898439	904.4020996093752	-973.1120605468752	-507.7632446289064	901.546813964844	-916.8774414062502	-418.4175415039064	623.7722778320314	-1185.415893554688	-342.5403747558594	594.5116577148439	-1211.423461914063	-307.0154724121094	625.1329956054689	-1203.215209960938	-324.0163269042969	534.8751831054689	-1214.204223632813	-267.2348632812501	464.2124938964845	-1215.7216796875	-221.4697418212891	324.3993225097657	-1205.355590820313	-297.8793334960938	296.6247863769532	-1238.935668945313	-259.1625061035157	284.7998046875001	-1226.293579101563	-269.7971496582032	206.0253601074219	-1191.350341796875	-374.4919738769532	96.76294708251956	-1199.499389648438	-332.6587829589844	96.99029541015628	-1122.801025390625	-419.9710998535157	45.93491363525391	-1137.539184570313	-210.5461425781251	66.84677886962892	-1189.048950195313	-222.2008056640626	67.36129760742189	-1226.59228515625	-274.7872924804688	37.65969467163087	-1263.757690429688	-428.7220153808595	684.1407470703126	-731.0784301757814	-364.2728271484376	672.7089233398439	-720.6926269531251	-343.3153686523438	691.5161743164064	-738.5354614257814	-329.6635131835938	601.3018798828126	-695.9866333007814	-250.5504455566407	462.7681274414064	-690.9362792968751	-220.6592864990235	283.5180969238282	-719.4159545898439	-304.0676574707032	222.744857788086	-677.4745483398439	-262.1605529785157	211.4555358886719	-697.2178955078126	-272.8574523925782	168.9041595458985	-740.2138061523439	-359.6507873535157	99.45883941650393	-704.4014892578126	-319.3129882812501	94.72205352783205	-775.064880371094	-400.9952087402345	43.34734725952149	-765.8448486328126	-200.3808593750001	59.34852600097658	-709.2742309570314	-213.7433776855469	66.77247619628908	-666.1958618164064	-268.7261657714844	43.98527526855469	-630.6670532226564	nan	nan	nan	
166	0.8250000000000001	-165.0004577636719	1389.817993164063	-1021.411254882813	-164.0524291992188	1386.64404296875	-882.0172119140627	-225.6624755859376	1248.562866210938	-944.5079345703127	-397.636199951172	1022.543273925781	-943.472595214844	-120.1050415039063	1147.807861328125	-951.2714843750002	-165.9602966308594	1206.627807617188	-1103.742065429688	-246.5896148681641	1096.051025390625	-1213.5185546875	-264.0325012207032	1054.54931640625	-1193.577392578125	-287.7689819335938	1056.22314453125	-1248.523071289063	-347.8088378906251	1036.538208007813	-1306.104736328125	-411.046600341797	1062.764770507813	-1283.556396484375	-448.1607055664064	835.0520629882815	-1179.607666015625	-432.6673889160157	807.653259277344	-1239.3291015625	-413.2073364257814	804.2589111328127	-1146.2685546875	-150.07177734375	1202.590942382813	-805.7349853515627	-263.2718505859376	1135.94970703125	-661.1550292968751	-254.3349304199219	1084.71142578125	-659.1759033203126	-297.4764404296876	1094.186645507813	-616.9841308593751	-337.6717834472657	1029.555419921875	-582.2032470703126	-392.8997802734376	1060.504760742188	-601.1296997070314	-435.898162841797	834.6662597656252	-720.7687377929689	-415.3228149414064	798.6331787109377	-671.9668579101564	-400.7405395507814	797.3137207031252	-762.4750366210939	-400.7167358398439	791.7641601562502	-1054.541381835938	-386.8199768066407	785.4783325195315	-855.8668212890627	-486.8707885742189	923.0037231445315	-947.0015869140627	-513.7413330078126	901.1354980468752	-973.1921997070315	-509.0119934082032	898.0769653320315	-917.0254516601565	-419.0365295410157	621.4826049804689	-1185.783447265625	-342.6864013671876	592.9316406250001	-1211.814575195313	-307.5444335937501	623.8875122070314	-1203.460327148438	-323.8449401855469	533.6214599609376	-1214.863403320313	-266.2052917480469	463.4077758789064	-1215.695434570313	-220.8196411132813	323.9548645019532	-1205.904418945313	-297.3800354003907	296.3333435058594	-1239.415893554688	-258.5502929687501	284.3812866210938	-1226.8427734375	-269.4411621093751	205.7060089111329	-1191.714965820313	-374.2908325195313	96.735710144043	-1199.557373046875	-332.4970092773438	96.96553802490237	-1122.828735351563	-419.8724060058595	45.90723037719727	-1137.49169921875	-210.6533203125001	66.76961517333986	-1189.173217773438	-222.1648712158204	67.20424652099611	-1226.601806640625	-274.7665405273438	37.48820495605469	-1263.7587890625	-429.7882690429689	681.4459838867189	-731.0081176757814	-365.3134460449219	670.8099365234376	-720.6636962890626	-344.0462646484376	689.6669921875001	-738.4794921875001	-330.0421447753907	599.7321777343751	-695.8449096679689	-249.7260437011719	461.9988403320314	-690.4264526367189	-220.1378936767579	283.0884704589844	-719.1000976562501	-303.6876831054688	222.546859741211	-677.2260742187501	-262.1446533203126	211.4004058837891	-697.0478515625001	-272.6884460449219	168.7651519775391	-740.1056518554689	-359.4974975585938	99.45957183837893	-704.3082885742189	-319.1681823730469	94.69094848632814	-775.0529785156252	-400.8302612304689	43.25963592529298	-765.9077758789064	-200.3853607177735	59.26400756835939	-709.2066040039064	-213.8231964111329	66.64356994628908	-666.0416870117189	-268.8114318847657	43.96300125122071	-630.5700073242189	nan	nan	nan	
